<?xml version="1.0" standalone="no"?>
<!DOCTYPE svg PUBLIC "-//W3C//DTD SVG 20010904//EN"
 "http://www.w3.org/TR/2001/REC-SVG-20010904/DTD/svg10.dtd">
<svg version="1.0" xmlns="http://www.w3.org/2000/svg"
 width="370.000000pt" height="235.000000pt" viewBox="0 0 370.000000 235.000000"
 preserveAspectRatio="xMidYMid meet">

<g transform="translate(0.000000,235.000000) scale(0.100000,-0.100000)"
fill="#000000" stroke="none">
<path d="M1834 2211 c-53 -32 -79 -155 -45 -212 18 -31 25 -63 22 -97 -2 -23
-73 -45 -152 -47 -93 -2 -134 -23 -167 -82 -13 -23 -38 -51 -56 -62 -30 -19
-53 -47 -99 -122 -8 -14 -19 -42 -22 -61 -6 -31 -3 -39 27 -67 54 -53 100 -80
185 -110 102 -36 172 -86 173 -123 l0 -27 210 -1 c172 0 210 2 210 13 0 15 63
62 181 137 48 30 95 70 127 109 46 55 50 64 45 98 -13 77 -98 203 -139 203 -7
0 -18 16 -25 35 -7 20 -23 42 -34 49 -34 22 -104 38 -176 40 -89 2 -119 22
-119 77 0 22 7 50 15 63 15 22 14 29 -5 90 -16 49 -30 73 -54 91 -39 30 -61
31 -102 6z m-226 -676 c12 -19 38 -45 57 -57 22 -15 37 -34 41 -53 3 -16 11
-36 17 -43 18 -22 -1 -25 -40 -5 -76 38 -123 73 -129 98 -3 13 -12 30 -20 36
-13 10 -11 15 7 36 30 31 40 29 67 -12z m659 24 c8 -8 6 -22 -8 -53 -10 -22
-19 -49 -19 -58 0 -23 -100 -108 -127 -108 -28 0 -28 1 -3 47 11 21 20 46 20
55 0 23 90 126 111 127 8 1 20 -4 26 -10z"/>
<path d="M328 1126 l-58 -53 0 -189 0 -189 56 -52 57 -53 132 0 c119 0 134 2
150 20 22 25 37 26 33 3 -3 -17 15 -18 235 -21 l237 -2 0 120 0 120 -105 0
-105 0 0 70 c0 56 3 70 15 70 12 0 15 18 15 105 l0 105 -149 0 c-144 0 -149
-1 -144 -20 3 -11 1 -20 -4 -20 -6 0 -18 9 -28 20 -16 18 -30 20 -149 20
l-131 -1 -57 -53z m340 -29 l42 -43 0 -170 0 -170 -43 -42 -43 -42 -114 0
-114 0 -43 42 -43 42 0 170 0 170 42 43 42 43 116 0 116 0 42 -43z m282 -17
c0 -45 -4 -62 -15 -66 -12 -5 -15 -29 -15 -130 l0 -124 40 0 c29 0 40 4 40 15
0 12 13 15 60 15 l60 0 0 -80 0 -80 -195 0 -195 0 0 60 c0 48 4 62 18 68 15 6
17 22 17 127 0 105 -2 121 -17 127 -14 6 -18 20 -18 68 l0 60 110 0 110 0 0
-60z"/>
<path d="M362 1087 l-32 -33 0 -170 0 -170 33 -32 33 -32 115 0 115 0 32 33
32 33 0 170 0 170 -33 32 -33 32 -115 0 -115 0 -32 -33z m203 -202 l0 -140
-55 0 -55 0 -3 129 c-1 72 0 136 3 143 3 10 20 13 57 11 l53 -3 0 -140z"/>
<path d="M465 997 c-3 -7 -4 -62 -3 -123 l3 -109 45 0 45 0 0 120 0 120 -43 3
c-29 2 -44 -1 -47 -11z m52 -160 c-2 -23 -3 -1 -3 48 0 50 1 68 3 42 2 -26 2
-67 0 -90z"/>
<path d="M750 1075 c0 -33 4 -45 15 -45 13 0 15 -23 15 -145 0 -122 -2 -145
-15 -145 -11 0 -15 -12 -15 -45 l0 -45 180 0 180 0 0 60 0 60 -50 0 c-38 0
-50 -4 -50 -15 0 -12 -13 -15 -55 -15 l-55 0 0 145 c0 122 2 145 15 145 11 0
15 12 15 45 l0 45 -90 0 -90 0 0 -45z"/>
<path d="M1012 1078 l3 -103 36 0 c32 0 47 -9 108 -68 67 -65 89 -107 56 -107
-12 0 -15 -18 -15 -105 l0 -105 145 0 145 0 0 105 c0 87 -3 105 -15 105 -32 0
-12 38 53 103 92 92 102 90 102 -18 0 -69 -3 -85 -15 -85 -12 0 -15 -18 -15
-105 l0 -106 148 3 147 3 -3 28 c-4 32 14 36 24 5 l6 -21 19 24 19 24 0 -32 0
-33 265 0 265 0 0 95 0 95 47 0 c41 0 52 5 85 37 l38 37 0 -27 c0 -17 -5 -27
-15 -27 -12 0 -15 -18 -15 -105 l0 -105 262 2 263 3 -3 42 c-4 47 4 83 19 83
5 0 9 -29 9 -65 l0 -65 145 0 145 0 0 104 0 105 -26 3 c-22 3 -31 15 -60 87
-31 77 -34 94 -34 188 l0 103 -180 0 -180 0 0 -97 c0 -90 -3 -105 -37 -190
-21 -51 -41 -93 -45 -93 -5 0 -8 36 -8 80 0 44 0 83 0 88 0 4 6 7 13 7 9 0 13
29 15 103 l3 102 -151 0 c-143 0 -150 -1 -150 -20 0 -25 -12 -25 -35 0 -18 20
-29 20 -299 18 l-281 -3 -40 -67 c-22 -37 -43 -67 -47 -68 -4 0 -26 32 -49 70
l-41 70 -414 0 -415 0 3 -102z m297 -3 c-2 -51 2 -69 16 -85 17 -19 19 -19 37
-4 14 14 18 32 18 86 l0 68 120 0 120 0 0 -60 c0 -50 -3 -60 -17 -60 -10 0
-55 -37 -100 -82 -81 -80 -83 -84 -83 -130 0 -36 4 -48 15 -48 12 0 15 -14 15
-65 l0 -65 -110 0 -110 0 0 61 c0 52 3 62 20 66 16 4 20 14 20 52 0 46 -2 50
-84 129 -62 61 -90 82 -110 82 -25 0 -26 2 -26 60 l0 60 131 0 130 0 -2 -65z
m556 -23 c29 -46 56 -84 60 -84 4 0 31 38 60 84 l52 83 86 3 87 3 0 -66 c0
-47 -4 -64 -12 -63 -10 2 -14 -29 -16 -124 -2 -109 0 -128 13 -128 12 0 15
-13 15 -65 l0 -65 -105 0 -105 0 0 65 c0 51 3 65 15 65 11 0 15 12 15 47 l0
47 -46 -74 c-25 -41 -50 -79 -54 -83 -4 -5 -30 29 -59 75 l-51 83 0 -48 c0
-35 4 -47 15 -47 12 0 15 -14 15 -65 l0 -65 -105 0 -105 0 0 65 c0 52 3 65 15
65 13 0 15 19 13 128 -2 95 -6 126 -15 125 -9 -2 -13 15 -13 62 l0 66 87 -3
86 -3 52 -83z m741 44 c44 -43 44 -44 44 -115 0 -70 -1 -72 -41 -116 l-42 -45
-73 0 -74 0 0 -29 c0 -16 6 -31 15 -35 11 -4 15 -21 15 -66 l0 -61 -107 3
-108 3 -3 58 c-3 52 -1 59 18 64 20 5 20 11 18 132 -3 103 -6 126 -18 126 -10
0 -16 14 -18 48 -6 80 -13 77 169 77 l162 0 43 -44z m274 -21 c0 -51 -3 -65
-15 -65 -13 0 -15 -21 -15 -125 0 -104 2 -125 15 -125 12 0 15 -14 15 -65 l0
-65 -105 0 -105 0 0 65 c0 51 3 65 15 65 13 0 15 21 15 125 0 104 -2 125 -15
125 -12 0 -15 14 -15 65 l0 65 105 0 105 0 0 -65z m430 7 c0 -32 -5 -63 -10
-68 -16 -16 83 -246 109 -256 18 -6 21 -16 21 -68 l0 -60 -105 0 -105 0 0 65
0 65 -55 0 -55 0 0 -65 0 -65 -105 0 -105 0 0 61 c0 52 3 62 19 66 24 6 125
242 110 257 -5 6 -9 36 -9 68 l0 58 145 0 145 0 0 -58z"/>
<path d="M1070 1075 c0 -40 2 -45 23 -45 15 0 50 -28 105 -83 l82 -82 0 -63
c0 -48 -3 -62 -15 -62 -11 0 -15 -12 -15 -45 l0 -45 90 0 90 0 0 45 c0 33 -4
45 -15 45 -12 0 -15 14 -15 64 l0 64 88 81 c48 44 95 81 105 81 14 0 17 9 17
45 l0 45 -110 0 -110 0 0 -44 c0 -32 4 -45 16 -48 11 -2 5 -13 -23 -40 l-38
-37 -39 36 c-23 21 -35 38 -28 41 7 2 12 23 12 48 l0 44 -110 0 -110 0 0 -45z"/>
<path d="M1650 1075 c0 -33 4 -45 15 -45 13 0 15 -23 15 -145 0 -122 -2 -145
-15 -145 -11 0 -15 -12 -15 -45 l0 -46 91 3 91 3 2 43 c2 35 -1 42 -16 42 -16
0 -18 9 -18 81 0 48 4 78 9 74 6 -3 33 -44 61 -90 28 -47 53 -85 54 -85 2 0
27 38 55 85 29 46 57 87 62 90 5 4 9 -27 9 -74 0 -65 -3 -81 -15 -81 -11 0
-15 -12 -15 -45 l0 -45 90 0 90 0 0 45 c0 33 -4 45 -15 45 -13 0 -15 23 -15
145 0 122 2 145 15 145 11 0 15 12 15 45 l0 45 -77 0 -78 -1 -47 -77 c-80
-131 -67 -129 -134 -19 l-59 97 -77 0 -78 0 0 -45z"/>
<path d="M2250 1075 c0 -33 4 -45 15 -45 13 0 15 -23 15 -145 0 -122 -2 -145
-15 -145 -11 0 -15 -12 -15 -45 l0 -45 90 0 90 0 0 45 c0 34 -4 45 -16 45 -12
0 -14 10 -12 48 l3 47 70 0 c67 0 73 2 113 36 42 36 42 36 42 105 0 68 -1 71
-38 107 l-38 37 -152 0 -152 0 0 -45z m248 -57 c7 -7 12 -24 12 -38 0 -37 -18
-50 -67 -50 l-43 0 0 50 0 50 43 0 c24 0 48 -5 55 -12z"/>
<path d="M2420 974 c0 -34 1 -35 33 -32 28 3 32 7 35 36 3 31 2 32 -32 32 -35
0 -36 -1 -36 -36z"/>
<path d="M2680 1076 c0 -32 4 -45 16 -48 13 -3 15 -24 15 -143 0 -119 -2 -140
-15 -143 -12 -3 -16 -16 -16 -48 l0 -44 95 0 95 0 0 45 c0 33 -4 45 -15 45
-13 0 -15 23 -15 145 0 122 2 145 15 145 11 0 15 12 15 45 l0 45 -95 0 -95 0
0 -44z"/>
<path d="M3040 1076 c0 -26 5 -46 12 -48 17 -6 -100 -288 -118 -288 -10 0 -14
-14 -14 -45 l0 -45 90 0 90 0 0 44 c0 25 -5 46 -12 48 -6 2 -9 12 -5 21 10 25
152 25 162 0 3 -10 1 -19 -4 -21 -6 -2 -11 -24 -11 -48 l0 -44 90 0 90 0 0 44
c0 33 -4 45 -17 49 -24 6 -133 279 -115 285 7 2 12 22 12 48 l0 44 -125 0
-125 0 0 -44z m129 -214 c-23 -2 -43 -1 -45 1 -2 2 6 26 18 53 l21 49 23 -50
24 -50 -41 -3z"/>
<path d="M3152 900 c-7 -19 -6 -26 5 -28 22 -5 27 5 16 30 l-11 23 -10 -25z"/>
<path d="M622 413 l3 -148 1215 0 1215 0 3 148 3 147 -1221 0 -1221 0 3 -147z
m218 57 c0 -16 -7 -20 -35 -20 -41 0 -47 -17 -8 -22 17 -2 29 -10 31 -20 3
-14 -3 -18 -27 -18 -26 0 -31 -4 -31 -25 0 -22 -4 -25 -35 -25 l-35 0 0 75 0
75 70 0 c63 0 70 -2 70 -20z m90 -55 l0 -75 -32 0 -33 0 0 75 0 75 33 0 32 0
0 -75z m170 56 c0 -13 -8 -21 -22 -23 -21 -3 -23 -9 -23 -56 0 -51 0 -52 -30
-52 -30 0 -30 1 -29 51 1 42 -2 52 -16 56 -10 3 -20 13 -23 24 -5 17 1 19 69
19 66 0 74 -2 74 -19z m101 -16 c30 -44 39 -44 39 0 0 31 3 35 25 35 24 0 25
-2 25 -75 l0 -75 -29 0 c-21 0 -34 9 -52 35 -30 44 -39 44 -39 0 0 -31 -3 -35
-25 -35 -24 0 -25 2 -25 75 l0 75 29 0 c21 0 34 -9 52 -35z m262 15 c-4 -15
-14 -20 -39 -20 -19 0 -34 -4 -34 -10 0 -5 14 -10 30 -10 22 0 30 -5 30 -18 0
-15 -6 -18 -30 -14 -23 3 -30 0 -30 -12 0 -12 10 -16 38 -16 28 0 39 -4 39
-15 0 -12 -15 -15 -74 -15 l-73 0 0 75 0 75 74 0 c69 0 74 -1 69 -20z m153 3
c-2 -12 -15 -20 -37 -24 l-34 -6 28 -11 c16 -7 33 -12 38 -12 6 0 9 -17 7 -37
l-3 -38 -62 -3 c-52 -2 -63 0 -63 13 0 11 11 15 40 15 22 0 40 4 40 9 0 5 -18
16 -40 25 -34 13 -40 20 -40 44 0 39 5 42 71 42 49 0 57 -3 55 -17z m154 -4
c0 -18 -5 -21 -30 -17 -46 7 -45 -7 1 -25 37 -15 40 -19 37 -49 l-3 -33 -62
-3 c-52 -2 -63 0 -63 13 0 10 10 15 34 15 50 0 52 15 6 34 -34 13 -40 20 -40
44 0 39 5 42 67 42 47 0 53 -2 53 -21z m318 4 c-2 -12 -15 -20 -38 -23 -31 -4
-35 -9 -38 -37 -3 -32 -2 -33 37 -33 34 0 41 -3 41 -20 0 -18 -7 -20 -65 -20
-36 0 -65 4 -66 10 -3 51 0 120 5 129 4 6 34 11 67 11 51 0 59 -2 57 -17z
m162 -3 c0 -17 -7 -20 -41 -20 -24 0 -38 -4 -34 -10 3 -5 19 -10 36 -10 21 0
29 -5 29 -18 0 -15 -6 -18 -30 -14 -23 3 -30 0 -30 -12 0 -12 9 -16 35 -16 24
0 35 -5 35 -15 0 -12 -14 -15 -70 -15 l-70 0 0 75 0 75 70 0 c63 0 70 -2 70
-20z m110 -15 c32 -44 40 -44 40 0 0 31 3 35 25 35 24 0 25 -2 25 -75 l0 -75
-27 0 c-20 0 -37 11 -60 37 l-32 38 -1 -37 c0 -34 -3 -38 -25 -38 -24 0 -25 2
-25 75 l0 75 28 0 c19 0 34 -10 52 -35z m253 15 c-3 -11 -12 -20 -19 -20 -10
0 -14 -15 -14 -55 l0 -55 -35 0 -35 0 0 55 c0 46 -3 55 -18 55 -11 0 -18 7
-18 20 0 18 7 20 72 20 67 0 72 -1 67 -20z m167 0 c0 -17 -7 -20 -41 -20 -24
0 -38 -4 -34 -10 3 -5 19 -10 36 -10 41 0 39 -28 -3 -32 -45 -4 -42 -22 5 -26
24 -2 37 -8 37 -18 0 -11 -16 -14 -70 -14 l-70 0 0 75 0 75 70 0 c63 0 70 -2
70 -20z m188 -24 c2 -21 -1 -43 -7 -49 -6 -6 -5 -18 6 -33 15 -23 15 -24 -14
-24 -17 0 -38 9 -48 20 -10 11 -22 20 -27 20 -4 0 -8 -9 -8 -20 0 -16 -7 -20
-30 -20 l-30 0 0 75 0 76 78 -3 77 -3 3 -39z"/>
<path d="M2870 435 c0 -8 9 -15 20 -15 11 0 20 7 20 15 0 8 -9 15 -20 15 -11
0 -20 -7 -20 -15z"/>
<path d="M435 430 c43 -44 76 -83 72 -87 -4 -4 -58 -40 -120 -80 l-112 -73
378 0 377 0 0 30 0 30 -210 0 -210 0 0 130 0 130 -127 0 -128 0 80 -80z"/>
<path d="M3070 380 l0 -130 -230 0 -230 0 0 -30 0 -30 381 0 381 0 -109 71
c-59 39 -112 75 -118 80 -6 6 21 39 70 89 l80 80 -113 0 -112 0 0 -130z"/>
</g>
</svg>
